<svg xmlns:xlink="http://www.w3.org/1999/xlink" xmlns="http://www.w3.org/2000/svg" width="194" height="122"><g transform="translate(1,121)"><g transform="scale(1,-1)" class="map"><rect x="0" y="0" width="24" height="24" class="start" stroke="#CCCCCC" fill="#88FF88"></rect><rect x="24" y="0" width="24" height="24" class="clear" stroke="#CCCCCC" fill="#FFFFFF"></rect><rect x="48" y="0" width="24" height="24" class="clear" stroke="#CCCCCC" fill="#FFFFFF"></rect><rect x="72" y="0" width="24" height="24" class="clear" stroke="#CCCCCC" fill="#FFFFFF"></rect><rect x="96" y="0" width="24" height="24" class="clear" stroke="#CCCCCC" fill="#FFFFFF"></rect><rect x="120" y="0" width="24" height="24" class="blocked" stroke="#CCCCCC" fill="#666666"></rect><rect x="144" y="0" width="24" height="24" class="clear" stroke="#CCCCCC" fill="#FFFFFF"></rect><rect x="168" y="0" width="24" height="24" class="clear" stroke="#CCCCCC" fill="#FFFFFF"></rect><rect x="0" y="24" width="24" height="24" class="clear" stroke="#CCCCCC" fill="#FFFFFF"></rect><rect x="24" y="24" width="24" height="24" class="clear" stroke="#CCCCCC" fill="#FFFFFF"></rect><rect x="48" y="24" width="24" height="24" class="clear" stroke="#CCCCCC" fill="#FFFFFF"></rect><rect x="72" y="24" width="24" height="24" class="clear" stroke="#CCCCCC" fill="#FFFFFF"></rect><rect x="96" y="24" width="24" height="24" class="clear" stroke="#CCCCCC" fill="#FFFFFF"></rect><rect x="120" y="24" width="24" height="24" class="blocked" stroke="#CCCCCC" fill="#666666"></rect><rect x="144" y="24" width="24" height="24" class="clear" stroke="#CCCCCC" fill="#FFFFFF"></rect><rect x="168" y="24" width="24" height="24" class="clear" stroke="#CCCCCC" fill="#FFFFFF"></rect><rect x="0" y="48" width="24" height="24" class="clear" stroke="#CCCCCC" fill="#FFFFFF"></rect><rect x="24" y="48" width="24" height="24" class="clear" stroke="#CCCCCC" fill="#FFFFFF"></rect><rect x="48" y="48" width="24" height="24" class="clear" stroke="#CCCCCC" fill="#FFFFFF"></rect><rect x="72" y="48" width="24" height="24" class="clear" stroke="#CCCCCC" fill="#FFFFFF"></rect><rect x="96" y="48" width="24" height="24" class="clear" stroke="#CCCCCC" fill="#FFFFFF"></rect><rect x="120" y="48" width="24" height="24" class="blocked" stroke="#CCCCCC" fill="#666666"></rect><rect x="144" y="48" width="24" height="24" class="clear" stroke="#CCCCCC" fill="#FFFFFF"></rect><rect x="168" y="48" width="24" height="24" class="clear" stroke="#CCCCCC" fill="#FFFFFF"></rect><rect x="0" y="72" width="24" height="24" class="clear" stroke="#CCCCCC" fill="#FFFFFF"></rect><rect x="24" y="72" width="24" height="24" class="clear" stroke="#CCCCCC" fill="#FFFFFF"></rect><rect x="48" y="72" width="24" height="24" class="clear" stroke="#CCCCCC" fill="#FFFFFF"></rect><rect x="72" y="72" width="24" height="24" class="clear" stroke="#CCCCCC" fill="#FFFFFF"></rect><rect x="96" y="72" width="24" height="24" class="clear" stroke="#CCCCCC" fill="#FFFFFF"></rect><rect x="120" y="72" width="24" height="24" class="clear" stroke="#CCCCCC" fill="#FFFFFF"></rect><rect x="144" y="72" width="24" height="24" class="clear" stroke="#CCCCCC" fill="#FFFFFF"></rect><rect x="168" y="72" width="24" height="24" class="clear" stroke="#CCCCCC" fill="#FFFFFF"></rect><rect x="0" y="96" width="24" height="24" class="clear" stroke="#CCCCCC" fill="#FFFFFF"></rect><rect x="24" y="96" width="24" height="24" class="clear" stroke="#CCCCCC" fill="#FFFFFF"></rect><rect x="48" y="96" width="24" height="24" class="clear" stroke="#CCCCCC" fill="#FFFFFF"></rect><rect x="72" y="96" width="24" height="24" class="clear" stroke="#CCCCCC" fill="#FFFFFF"></rect><rect x="96" y="96" width="24" height="24" class="clear" stroke="#CCCCCC" fill="#FFFFFF"></rect><rect x="120" y="96" width="24" height="24" class="clear" stroke="#CCCCCC" fill="#FFFFFF"></rect><rect x="144" y="96" width="24" height="24" class="clear" stroke="#CCCCCC" fill="#FFFFFF"></rect><rect x="168" y="96" width="24" height="24" class="clear" stroke="#CCCCCC" fill="#FFFFFF"></rect></g><g transform="scale(1,-1)" class="annotations"><g class="squares"><rect x="72" y="72" width="24" height="24" class="open" stroke="#CCCCCC" fill="#BBBBFF"></rect><rect x="0" y="0" width="24" height="24" class="start" stroke="#CCCCCC" fill="#88FF88"></rect></g><g class="extras"></g><g class="paths"><line x1="15.394112549695429" y1="15.394112549695429" x2="80.60588745030456" y2="80.60588745030456" class="previous" marker-end="url(#arrowhead-previous)" stroke="#999999" stroke-width="2px"></line></g><defs><marker id="arrowhead-current" orient="auto" viewBox="0 0 10 10" refX="6" refY="5"><polyline points="0,0 10,5 0,10 1,5"></polyline></marker><marker id="arrowhead-previous" orient="auto" viewBox="0 0 10 10" refX="6" refY="5"><polyline points="0,0 10,5 0,10 1,5"></polyline></marker><marker id="arrowhead-examined" orient="auto" viewBox="0 0 10 10" refX="6" refY="5"><polyline points="0,0 10,5 0,10 1,5"></polyline></marker></defs></g></g></svg>