<svg xmlns:xlink="http://www.w3.org/1999/xlink" xmlns="http://www.w3.org/2000/svg" width="170" height="146"><g transform="translate(1,145)"><g transform="scale(1,-1)" class="map"><rect x="0" y="0" width="24" height="24" class="clear" stroke="#CCCCCC" fill="#FFFFFF"></rect><rect x="24" y="0" width="24" height="24" class="clear" stroke="#CCCCCC" fill="#FFFFFF"></rect><rect x="48" y="0" width="24" height="24" class="clear" stroke="#CCCCCC" fill="#FFFFFF"></rect><rect x="72" y="0" width="24" height="24" class="clear" stroke="#CCCCCC" fill="#FFFFFF"></rect><rect x="96" y="0" width="24" height="24" class="clear" stroke="#CCCCCC" fill="#FFFFFF"></rect><rect x="120" y="0" width="24" height="24" class="clear" stroke="#CCCCCC" fill="#FFFFFF"></rect><rect x="144" y="0" width="24" height="24" class="clear" stroke="#CCCCCC" fill="#FFFFFF"></rect><rect x="0" y="24" width="24" height="24" class="start" stroke="#CCCCCC" fill="#88FF88"></rect><rect x="24" y="24" width="24" height="24" class="clear" stroke="#CCCCCC" fill="#FFFFFF"></rect><rect x="48" y="24" width="24" height="24" class="clear" stroke="#CCCCCC" fill="#FFFFFF"></rect><rect x="72" y="24" width="24" height="24" class="clear" stroke="#CCCCCC" fill="#FFFFFF"></rect><rect x="96" y="24" width="24" height="24" class="clear" stroke="#CCCCCC" fill="#FFFFFF"></rect><rect x="120" y="24" width="24" height="24" class="clear" stroke="#CCCCCC" fill="#FFFFFF"></rect><rect x="144" y="24" width="24" height="24" class="clear" stroke="#CCCCCC" fill="#FFFFFF"></rect><rect x="0" y="48" width="24" height="24" class="clear" stroke="#CCCCCC" fill="#FFFFFF"></rect><rect x="24" y="48" width="24" height="24" class="clear" stroke="#CCCCCC" fill="#FFFFFF"></rect><rect x="48" y="48" width="24" height="24" class="clear" stroke="#CCCCCC" fill="#FFFFFF"></rect><rect x="72" y="48" width="24" height="24" class="clear" stroke="#CCCCCC" fill="#FFFFFF"></rect><rect x="96" y="48" width="24" height="24" class="clear" stroke="#CCCCCC" fill="#FFFFFF"></rect><rect x="120" y="48" width="24" height="24" class="clear" stroke="#CCCCCC" fill="#FFFFFF"></rect><rect x="144" y="48" width="24" height="24" class="clear" stroke="#CCCCCC" fill="#FFFFFF"></rect><rect x="0" y="72" width="24" height="24" class="clear" stroke="#CCCCCC" fill="#FFFFFF"></rect><rect x="24" y="72" width="24" height="24" class="clear" stroke="#CCCCCC" fill="#FFFFFF"></rect><rect x="48" y="72" width="24" height="24" class="clear" stroke="#CCCCCC" fill="#FFFFFF"></rect><rect x="72" y="72" width="24" height="24" class="clear" stroke="#CCCCCC" fill="#FFFFFF"></rect><rect x="96" y="72" width="24" height="24" class="clear" stroke="#CCCCCC" fill="#FFFFFF"></rect><rect x="120" y="72" width="24" height="24" class="clear" stroke="#CCCCCC" fill="#FFFFFF"></rect><rect x="144" y="72" width="24" height="24" class="clear" stroke="#CCCCCC" fill="#FFFFFF"></rect><rect x="0" y="96" width="24" height="24" class="clear" stroke="#CCCCCC" fill="#FFFFFF"></rect><rect x="24" y="96" width="24" height="24" class="clear" stroke="#CCCCCC" fill="#FFFFFF"></rect><rect x="48" y="96" width="24" height="24" class="clear" stroke="#CCCCCC" fill="#FFFFFF"></rect><rect x="72" y="96" width="24" height="24" class="clear" stroke="#CCCCCC" fill="#FFFFFF"></rect><rect x="96" y="96" width="24" height="24" class="clear" stroke="#CCCCCC" fill="#FFFFFF"></rect><rect x="120" y="96" width="24" height="24" class="clear" stroke="#CCCCCC" fill="#FFFFFF"></rect><rect x="144" y="96" width="24" height="24" class="goal" stroke="#CCCCCC" fill="#FF8888"></rect><rect x="0" y="120" width="24" height="24" class="clear" stroke="#CCCCCC" fill="#FFFFFF"></rect><rect x="24" y="120" width="24" height="24" class="clear" stroke="#CCCCCC" fill="#FFFFFF"></rect><rect x="48" y="120" width="24" height="24" class="clear" stroke="#CCCCCC" fill="#FFFFFF"></rect><rect x="72" y="120" width="24" height="24" class="clear" stroke="#CCCCCC" fill="#FFFFFF"></rect><rect x="96" y="120" width="24" height="24" class="clear" stroke="#CCCCCC" fill="#FFFFFF"></rect><rect x="120" y="120" width="24" height="24" class="clear" stroke="#CCCCCC" fill="#FFFFFF"></rect><rect x="144" y="120" width="24" height="24" class="clear" stroke="#CCCCCC" fill="#FFFFFF"></rect></g><g transform="scale(1,-1)" class="annotations"><g class="squares"><rect x="120" y="96" width="24" height="24" class="closed" stroke="#CCCCCC" fill="#DDDDDD"></rect><rect x="96" y="96" width="24" height="24" class="closed" stroke="#CCCCCC" fill="#DDDDDD"></rect><rect x="72" y="96" width="24" height="24" class="closed" stroke="#CCCCCC" fill="#DDDDDD"></rect><rect x="120" y="72" width="24" height="24" class="closed" stroke="#CCCCCC" fill="#DDDDDD"></rect><rect x="96" y="72" width="24" height="24" class="closed" stroke="#CCCCCC" fill="#DDDDDD"></rect><rect x="72" y="72" width="24" height="24" class="closed" stroke="#CCCCCC" fill="#DDDDDD"></rect><rect x="48" y="72" width="24" height="24" class="closed" stroke="#CCCCCC" fill="#DDDDDD"></rect><rect x="96" y="48" width="24" height="24" class="closed" stroke="#CCCCCC" fill="#DDDDDD"></rect><rect x="72" y="48" width="24" height="24" class="closed" stroke="#CCCCCC" fill="#DDDDDD"></rect><rect x="48" y="48" width="24" height="24" class="closed" stroke="#CCCCCC" fill="#DDDDDD"></rect><rect x="24" y="48" width="24" height="24" class="closed" stroke="#CCCCCC" fill="#DDDDDD"></rect><rect x="72" y="24" width="24" height="24" class="closed" stroke="#CCCCCC" fill="#DDDDDD"></rect><rect x="48" y="24" width="24" height="24" class="closed" stroke="#CCCCCC" fill="#DDDDDD"></rect><rect x="24" y="24" width="24" height="24" class="closed" stroke="#CCCCCC" fill="#DDDDDD"></rect><rect x="144" y="96" width="24" height="24" class="goal" stroke="#CCCCCC" fill="#FF8888"></rect><rect x="0" y="24" width="24" height="24" class="start" stroke="#CCCCCC" fill="#88FF88"></rect></g><g class="extras"></g><g class="paths"><line x1="16.8" y1="36" x2="31.200000000000003" y2="36" class="current" marker-end="url(#arrowhead-current)" stroke="#4444FF" stroke-width="2px"></line><line x1="40.8" y1="36" x2="55.2" y2="36" class="current" marker-end="url(#arrowhead-current)" stroke="#4444FF" stroke-width="2px"></line><line x1="64.80000000000001" y1="36" x2="79.19999999999999" y2="36" class="current" marker-end="url(#arrowhead-current)" stroke="#4444FF" stroke-width="2px"></line><line x1="40.8" y1="60" x2="55.2" y2="60" class="current" marker-end="url(#arrowhead-current)" stroke="#4444FF" stroke-width="2px"></line><line x1="64.80000000000001" y1="60" x2="79.19999999999999" y2="60" class="current" marker-end="url(#arrowhead-current)" stroke="#4444FF" stroke-width="2px"></line><line x1="88.80000000000001" y1="60" x2="103.19999999999999" y2="60" class="current" marker-end="url(#arrowhead-current)" stroke="#4444FF" stroke-width="2px"></line><line x1="64.80000000000001" y1="84" x2="79.19999999999999" y2="84" class="current" marker-end="url(#arrowhead-current)" stroke="#4444FF" stroke-width="2px"></line><line x1="88.80000000000001" y1="84" x2="103.19999999999999" y2="84" class="current" marker-end="url(#arrowhead-current)" stroke="#4444FF" stroke-width="2px"></line><line x1="112.80000000000001" y1="84" x2="127.19999999999999" y2="84" class="current" marker-end="url(#arrowhead-current)" stroke="#4444FF" stroke-width="2px"></line><line x1="88.80000000000001" y1="108" x2="103.19999999999999" y2="108" class="current" marker-end="url(#arrowhead-current)" stroke="#4444FF" stroke-width="2px"></line><line x1="112.80000000000001" y1="108" x2="127.19999999999999" y2="108" class="current" marker-end="url(#arrowhead-current)" stroke="#4444FF" stroke-width="2px"></line><line x1="136.8" y1="108" x2="151.2" y2="108" class="current" marker-end="url(#arrowhead-current)" stroke="#4444FF" stroke-width="2px"></line><line x1="15.394112549695429" y1="39.39411254969543" x2="32.60588745030457" y2="56.60588745030457" class="current" marker-end="url(#arrowhead-current)" stroke="#4444FF" stroke-width="2px"></line><line x1="39.39411254969543" y1="39.39411254969543" x2="56.60588745030457" y2="56.60588745030457" class="current" marker-end="url(#arrowhead-current)" stroke="#4444FF" stroke-width="2px"></line><line x1="63.394112549695436" y1="39.39411254969543" x2="80.60588745030456" y2="56.60588745030457" class="current" marker-end="url(#arrowhead-current)" stroke="#4444FF" stroke-width="2px"></line><line x1="87.39411254969544" y1="39.39411254969543" x2="104.60588745030456" y2="56.60588745030457" class="current" marker-end="url(#arrowhead-current)" stroke="#4444FF" stroke-width="2px"></line><line x1="39.39411254969543" y1="63.394112549695436" x2="56.60588745030457" y2="80.60588745030456" class="current" marker-end="url(#arrowhead-current)" stroke="#4444FF" stroke-width="2px"></line><line x1="63.394112549695436" y1="63.394112549695436" x2="80.60588745030456" y2="80.60588745030456" class="current" marker-end="url(#arrowhead-current)" stroke="#4444FF" stroke-width="2px"></line><line x1="87.39411254969544" y1="63.394112549695436" x2="104.60588745030456" y2="80.60588745030456" class="current" marker-end="url(#arrowhead-current)" stroke="#4444FF" stroke-width="2px"></line><line x1="111.39411254969542" y1="63.394112549695436" x2="128.60588745030458" y2="80.60588745030456" class="current" marker-end="url(#arrowhead-current)" stroke="#4444FF" stroke-width="2px"></line><line x1="63.394112549695436" y1="87.39411254969544" x2="80.60588745030456" y2="104.60588745030456" class="current" marker-end="url(#arrowhead-current)" stroke="#4444FF" stroke-width="2px"></line><line x1="87.39411254969544" y1="87.39411254969544" x2="104.60588745030456" y2="104.60588745030456" class="current" marker-end="url(#arrowhead-current)" stroke="#4444FF" stroke-width="2px"></line><line x1="111.39411254969542" y1="87.39411254969544" x2="128.60588745030458" y2="104.60588745030456" class="current" marker-end="url(#arrowhead-current)" stroke="#4444FF" stroke-width="2px"></line><line x1="135.39411254969542" y1="87.39411254969544" x2="152.60588745030458" y2="104.60588745030456" class="current" marker-end="url(#arrowhead-current)" stroke="#4444FF" stroke-width="2px"></line></g><defs><marker id="arrowhead-current" orient="auto" viewBox="0 0 10 10" refX="6" refY="5"><polyline points="0,0 10,5 0,10 1,5"></polyline></marker><marker id="arrowhead-previous" orient="auto" viewBox="0 0 10 10" refX="6" refY="5"><polyline points="0,0 10,5 0,10 1,5"></polyline></marker><marker id="arrowhead-examined" orient="auto" viewBox="0 0 10 10" refX="6" refY="5"><polyline points="0,0 10,5 0,10 1,5"></polyline></marker></defs></g></g></svg>